<?xml version="1.0" standalone="no"?><!DOCTYPE svg PUBLIC "-//W3C//DTD SVG 1.1//EN" "http://www.w3.org/Graphics/SVG/1.1/DTD/svg11.dtd"><svg t="1636772972557" class="icon" viewBox="0 0 1024 1024" version="1.1" xmlns="http://www.w3.org/2000/svg" p-id="3162" width="20" height="20" xmlns:xlink="http://www.w3.org/1999/xlink"><defs><style type="text/css"></style></defs><path d="M680 160h128c30.928 0 56 25.072 56 56v593c0 30.928-25.072 56-56 56H680c-30.928 0-56-25.072-56-56V216c0-30.928 25.072-56 56-56z m-464 0h128c30.928 0 56 25.072 56 56v593c0 30.928-25.072 56-56 56H216c-30.928 0-56-25.072-56-56V216c0-30.928 25.072-56 56-56z" p-id="3163" data-spm-anchor-id="a313x.7781069.0.i4" class="selected" fill="#ffffff"></path></svg>